<svg width="430" height="189" viewBox="0 0 430 189" fill="none" xmlns="http://www.w3.org/2000/svg">
<path d="M0 0H430L432.455 51.5451C434.365 91.6596 416.704 130.21 385.078 154.961V154.961C380.366 158.649 375.392 161.99 370.196 164.959L354.846 173.731C337.909 183.409 318.739 188.5 299.231 188.5V188.5C277.085 188.5 255.278 183.048 235.737 172.626L225.623 167.232C217.228 162.755 209.296 157.461 201.941 151.426L186.978 139.149C178.457 132.157 168.347 127.369 157.538 125.208V125.208C145.515 122.803 133.034 124.424 122.024 129.821L113.5 134L90.2226 147.363C87.7443 148.786 85.3752 150.391 83.1349 152.165V152.165C49.5107 178.792 0 154.845 0 111.954V0Z" fill="#5AB2FF"/>
</svg>
